<svg width="29" height="29" viewBox="0 0 29 29" fill="none" xmlns="http://www.w3.org/2000/svg">
<path d="M28.1777 26.6191L22.2578 20.7129C24.3471 18.2254 25.3955 15.0274 25.1843 11.7857C24.973 8.54406 23.5184 5.50912 21.1239 3.31385C18.7294 1.11859 15.5798 -0.0674953 12.332 0.00296908C9.08428 0.0734335 5.98911 1.39501 3.69206 3.69206C1.39501 5.98911 0.0734334 9.08429 0.00296908 12.332C-0.0674953 15.5798 1.11859 18.7294 3.31385 21.1239C5.50912 23.5184 8.54406 24.973 11.7857 25.1843C15.0273 25.3955 18.2254 24.3472 20.7129 22.2578L26.6191 28.1777C26.8282 28.3799 27.1076 28.4929 27.3984 28.4929C27.6892 28.4929 27.9687 28.3799 28.1777 28.1777C28.3831 27.9704 28.4983 27.6903 28.4983 27.3984C28.4983 27.1066 28.3831 26.8265 28.1777 26.6191V26.6191ZM2.24219 12.6328C2.24219 10.5777 2.85158 8.56882 3.99332 6.86009C5.13506 5.15136 6.75785 3.81957 8.65649 3.03313C10.5551 2.24668 12.6443 2.04091 14.6599 2.44184C16.6755 2.84276 18.5269 3.83237 19.9801 5.28553C21.4332 6.73869 22.4229 8.59012 22.8238 10.6057C23.2247 12.6213 23.0189 14.7105 22.2325 16.6091C21.4461 18.5078 20.1143 20.1306 18.4055 21.2723C16.6968 22.414 14.6879 23.0234 12.6328 23.0234C9.87815 23.0198 7.23736 21.9239 5.28952 19.9761C3.34169 18.0283 2.2458 15.3875 2.24219 12.6328V12.6328Z" fill="#162B28"/>
</svg>
