<svg width="267" height="76" viewBox="0 0 267 76" fill="none" xmlns="http://www.w3.org/2000/svg">
<g clip-path="url(#clip0_17_66)">
<path d="M37.2817 33.0444C38.3299 31.6968 39.7337 30.3678 41.4932 29.0576C43.29 27.7474 44.75 26.512 45.873 25.3516L46.1538 25.5762L44.6377 27.373C44.6377 27.71 45.1431 28.3464 46.1538 29.2822C47.1646 30.1807 48.3438 30.6299 49.6914 30.6299C50.4401 30.6299 51.5444 30.2368 53.0044 29.4507L53.2852 29.6753C51.5257 30.7983 50.1593 31.8091 49.186 32.7075C48.2127 33.606 47.202 34.0552 46.1538 34.0552C44.8436 34.0552 43.627 33.5124 42.5039 32.4268C41.4183 31.3037 40.7819 30.7422 40.5947 30.7422C40.3701 30.7422 39.7524 31.2663 38.7417 32.3145C37.7684 33.3252 37.2817 34.1488 37.2817 34.7852V47.1948C37.2817 48.5799 38.1427 49.703 39.8647 50.564L40.5947 51.0693L40.2578 51.2939C38.0117 51.7806 36.0838 53.4277 34.4741 56.2354C34.0623 56.9466 33.7629 57.3022 33.5757 57.3022L33.3511 56.853L34.5303 54.8877C34.5303 54.3262 34.0062 53.6149 32.958 52.7539C31.9473 51.8929 31.1986 51.4624 30.7119 51.4624C30.5247 51.4624 30.113 51.6121 29.4766 51.9116L29.252 51.5747L30.0381 51.0132C32.0221 50.0399 33.0142 48.8045 33.0142 47.3071V35.2344C33.0142 34.1862 32.6211 33.3065 31.835 32.5952C31.0863 31.884 30.4873 31.5283 30.0381 31.5283C29.6263 31.5283 28.8776 32.0711 27.792 33.1567C26.7064 34.2424 25.8828 35.3092 25.3213 36.3574V46.8579C25.3213 48.2804 26.3133 49.7217 28.2974 51.1816L27.9043 51.4062C26.2197 51.7432 24.5913 53.0908 23.019 55.4492C22.495 56.2354 22.1393 56.6284 21.9521 56.6284L21.7275 56.123L22.3452 55.2246C22.3452 54.5508 21.8773 53.7834 20.9414 52.9224C20.0055 52.0239 19.3879 51.5747 19.0884 51.5747C18.8263 51.5747 18.2274 51.8368 17.2915 52.3608C17.0295 52.3608 16.8984 52.2485 16.8984 52.0239L17.5161 51.6309C19.8745 50.3955 21.0537 48.842 21.0537 46.9702V35.5713C21.0537 34.6354 20.7168 33.868 20.043 33.269C19.3691 32.6701 18.7889 32.3706 18.3022 32.3706C17.3664 32.3706 16.3743 33.2503 15.3262 35.0098L15.1016 34.5044C15.1016 34.1675 15.5882 33.4375 16.5615 32.3145C17.5723 31.154 18.7889 30.0684 20.2114 29.0576C21.634 28.0094 22.6073 26.7554 23.1313 25.2954L23.356 24.8462C23.5806 24.8462 23.6929 24.9398 23.6929 25.127C23.6929 25.5013 23.2062 26.4933 22.2329 28.103C22.2329 28.2902 22.7383 28.7581 23.749 29.5068C24.7972 30.2181 25.3213 31.2101 25.3213 32.4829V35.1221C25.8079 34.0365 27.2866 32.5578 29.7573 30.686C32.2655 28.7769 33.7254 27.5415 34.1372 26.98C34.5864 26.4185 35.1292 25.52 35.7656 24.2847L35.9902 24.6216C35.9902 24.9585 35.3538 26.119 34.0811 28.103L34.811 28.8892C36.4582 30.1994 37.2817 31.5845 37.2817 33.0444ZM47.9507 57.1899C47.8009 57.2648 47.7261 57.1899 47.7261 56.9653C47.7261 56.7033 48.0443 56.2728 48.6807 55.6738L48.063 54.8877C45.7795 52.8662 44.6377 49.3473 44.6377 44.3311C44.6377 40.6999 45.7046 37.7051 47.8384 35.3467C49.9722 32.9508 51.3573 31.7529 51.9937 31.7529L52.4429 31.9775L52.1621 32.2583C49.8411 33.6808 48.6807 36.5072 48.6807 40.7373C48.6807 44.668 49.1112 47.382 49.9722 48.8794C50.8706 50.3394 52.0872 51.0693 53.6221 51.0693C53.959 51.0693 54.6515 50.6576 55.6997 49.834L55.9243 50.0586C55.9243 50.2458 55.2879 50.826 54.0151 51.7993C52.7424 52.7352 50.7209 54.5321 47.9507 57.1899ZM69.5693 48.6548C68.4463 50.2645 66.5184 52.0426 63.7856 53.9893C61.577 55.5615 59.9299 57.1899 58.8442 58.8745L58.5635 59.2676C58.3763 59.2676 58.2827 59.1553 58.2827 58.9307C58.2827 58.6312 58.6758 58.0135 59.4619 57.0776C60.2855 56.1792 60.6973 55.5241 60.6973 55.1123L60.1357 54.27C57.7773 51.8742 56.5981 48.7109 56.5981 44.7803C56.5981 39.5394 59.5368 34.5418 65.4141 29.7876C67.2109 28.3276 68.9891 26.4933 70.7485 24.2847L70.9731 24.5093C70.9731 24.7713 70.2432 25.8195 68.7832 27.6538C72.377 30.424 74.7915 31.8278 76.0269 31.8652C76.4761 31.9027 76.7007 32.015 76.7007 32.2021C74.7166 33.2878 73.7246 34.1862 73.7246 34.8975V47.3071C73.7246 48.7671 74.1738 49.965 75.0723 50.9009C75.9707 51.7993 76.7381 52.2485 77.3745 52.2485C77.7489 52.2485 78.5163 51.8368 79.6768 51.0132C79.8639 51.0132 79.9575 51.1255 79.9575 51.3501C79.9575 51.5747 79.1152 52.2111 77.4307 53.2593C75.7835 54.27 73.8182 56.0295 71.5347 58.5376L71.4224 58.313C71.4224 58.0135 72.04 57.0964 73.2754 55.5615C73.2754 55.3743 72.9946 55.0374 72.4331 54.5508C70.5239 52.8288 69.5693 50.8634 69.5693 48.6548ZM69.457 47.5317V34.5044C69.457 33.9803 68.8581 33.3065 67.6602 32.4829C66.4997 31.6219 65.7135 31.1914 65.3018 31.1914C64.8525 31.1914 64.0664 32.2957 62.9434 34.5044C61.8577 36.6756 61.3149 39.3335 61.3149 42.478C61.3149 45.0236 61.7642 47.0825 62.6626 48.6548C63.561 50.1896 64.6092 50.957 65.8071 50.957C67.0425 50.957 68.2591 49.8153 69.457 47.5317ZM94.6694 49.0479C94.6694 49.3848 94.0892 50.0773 92.9287 51.1255C91.7682 52.1737 89.6906 54.1203 86.6958 56.9653C86.4712 56.9653 86.3589 56.853 86.3589 56.6284L87.2573 55.3369L86.6958 54.8877C82.8026 52.1549 80.856 48.243 80.856 43.1519C80.856 40.9806 81.4549 38.8281 82.6528 36.6943C83.8507 34.5231 86.1343 32.2209 89.5034 29.7876C92.8726 27.3169 95.1561 25.4077 96.354 24.0601L96.5786 24.397C95.0438 26.0441 94.2764 26.9613 94.2764 27.1484C94.2764 27.3356 95.0812 27.9907 96.6909 29.1138C98.3381 30.2368 100.116 31.0791 102.025 31.6406C102.025 31.8278 101.726 32.0337 101.127 32.2583C99.4798 32.8573 98.6562 33.8493 98.6562 35.2344V46.0156C98.6562 47.4382 99.3675 48.9168 100.79 50.4517C102.213 51.9491 103.092 53.2218 103.429 54.27C103.766 55.2808 103.935 56.2915 103.935 57.3022C103.935 61.0457 102.531 64.2839 99.7231 67.0166C96.9155 69.7493 93.6587 71.1157 89.9526 71.1157C87.744 71.1157 85.8535 70.5916 84.2812 69.5435C82.7464 68.4953 81.979 67.1289 81.979 65.4443C81.979 64.2839 82.3346 63.348 83.0459 62.6367C83.7946 61.9255 84.7118 61.5698 85.7974 61.5698C86.883 61.5698 87.7814 61.9067 88.4927 62.5806C89.2039 63.2544 89.5596 64.0967 89.5596 65.1074C89.5596 65.8936 89.2788 66.5487 88.7173 67.0728C88.1932 67.5968 87.5568 67.8589 86.8081 67.8589C86.022 67.8589 85.1423 67.6717 84.1689 67.2974C84.1689 69.2065 86.0594 70.1611 89.8403 70.1611C92.8351 70.1611 95.4368 69.2627 97.6455 67.4658C99.8542 65.6689 100.958 63.3854 100.958 60.6152C100.958 59.4922 100.753 58.3691 100.341 57.2461C99.929 56.1605 99.0119 55 97.5894 53.7646C96.2043 52.5293 95.362 51.5934 95.0625 50.957C94.8005 50.3206 94.6694 49.6842 94.6694 49.0479ZM94.2764 48.0933V33.3813C94.2764 33.1567 93.6961 32.6514 92.5356 31.8652C91.3752 31.0417 90.7013 30.6299 90.5142 30.6299C90.0275 30.6299 89.0916 31.6781 87.7065 33.7744C86.3589 35.8333 85.6851 38.5848 85.6851 42.0288C85.6851 44.8364 86.2653 46.9889 87.4258 48.4863C88.6237 49.9837 89.9526 50.7324 91.4126 50.7324C92.1239 50.7324 92.779 50.4329 93.3779 49.834C93.9769 49.1976 94.2764 48.6174 94.2764 48.0933ZM108.988 11.4258C109.737 11.4258 110.43 11.7253 111.066 12.3242C111.702 12.8857 112.021 13.5409 112.021 14.2896C112.021 15.0382 111.74 15.7121 111.178 16.311C110.617 16.8726 109.962 17.1533 109.213 17.1533C108.464 17.1533 107.772 16.8726 107.135 16.311C106.536 15.7121 106.237 15.0382 106.237 14.2896C106.237 13.5409 106.518 12.8857 107.079 12.3242C107.641 11.7253 108.277 11.4258 108.988 11.4258ZM112.47 47.644C112.47 48.5425 112.788 49.4035 113.424 50.2271C114.061 51.0506 114.735 51.4624 115.446 51.4624C116.307 51.4624 117.112 51.1068 117.86 50.3955L118.085 50.7324C118.085 50.9945 117.318 51.7057 115.783 52.8662C114.248 53.9893 112.226 55.6925 109.718 57.9761L109.438 57.7515C109.438 57.452 109.662 57.1151 110.111 56.7407C110.598 56.3664 110.841 55.9733 110.841 55.5615L110.167 54.6631C108.857 53.2406 108.202 51.8555 108.202 50.5078V34.7852C108.202 34.2236 107.828 33.6808 107.079 33.1567C106.368 32.6326 105.862 32.3706 105.563 32.3706C105.301 32.3706 104.683 32.7075 103.71 33.3813L103.485 32.9321C107.528 29.825 110.167 27.5228 111.403 26.0254L111.74 25.6885C112.002 25.6885 112.133 25.8008 112.133 26.0254C112.133 26.2874 111.44 27.2046 110.055 28.7769C110.055 29.1886 110.542 29.7502 111.515 30.4614C112.488 31.1353 113.574 31.6781 114.772 32.0898C113.237 32.7637 112.47 33.5311 112.47 34.3921V47.644ZM135.829 28.6646C136.054 28.6646 136.166 28.7769 136.166 29.0015C136.166 29.3009 135.436 30.1807 133.976 31.6406C132.554 33.1006 131.356 33.8306 130.382 33.8306C129.334 33.8306 128.005 33.0632 126.396 31.5283C125.946 31.5283 125.385 32.3519 124.711 33.999C124.075 35.6087 123.756 38.1169 123.756 41.5234C123.756 44.1439 124.411 46.3338 125.722 48.0933C127.069 49.8527 128.623 50.7324 130.382 50.7324C131.281 50.7324 132.666 49.703 134.538 47.644L134.762 48.0933C134.762 48.3927 133.995 49.2912 132.46 50.7886C130.963 52.2485 129.559 53.3903 128.249 54.2139C126.938 55 125.74 56.1418 124.655 57.6392L124.43 57.3022L125.778 55.1123L125.216 54.7192C121.398 52.3983 119.489 48.7297 119.489 43.7134C119.489 38.8843 121.941 34.0552 126.845 29.2261C128.08 28.0282 129.615 26.2687 131.449 23.9478L131.674 24.2847L129.596 27.2607C131.281 28.7956 132.591 29.563 133.527 29.563C134.313 29.563 135.08 29.2635 135.829 28.6646ZM156.493 30.293C153.573 32.4642 152.113 34.8039 152.113 37.312C152.113 40.5314 153.274 42.1411 155.595 42.1411C156.418 42.1411 157.729 41.4299 159.525 40.0073C161.322 38.5848 163.082 37.8735 164.804 37.8735C166.451 37.8735 167.78 38.304 168.791 39.165C169.801 39.9886 170.307 41.0929 170.307 42.478C170.307 43.7882 169.652 45.1733 168.341 46.6333C167.031 48.0558 164.71 49.6842 161.378 51.5186C158.047 53.3154 155.932 54.5133 155.033 55.1123C154.135 55.7487 153.367 56.5161 152.731 57.4146C152.544 57.4146 152.45 57.3022 152.45 57.0776C152.45 56.8905 152.562 56.6659 152.787 56.4038C153.049 56.1418 153.18 55.861 153.18 55.5615C153.18 55.3743 152.862 55 152.226 54.4385C151.627 53.877 150.822 53.5962 149.811 53.5962C147.939 53.5962 146.461 54.5695 145.375 56.5161L145.094 56.853C144.87 56.853 144.757 56.7407 144.757 56.5161C144.757 55.9172 145.6 54.7567 147.284 53.0347C149.006 51.2752 151.046 50.3955 153.405 50.3955C155.164 50.3955 156.699 50.957 158.009 52.0801L158.458 52.3608L159.245 51.9116C161.753 50.6014 163.362 49.4035 164.074 48.3179C164.785 47.2323 165.141 46.0905 165.141 44.8926C165.141 43.5824 164.748 42.5529 163.961 41.8042C163.213 41.0181 162.221 40.625 160.985 40.625C160.087 40.625 158.721 41.3363 156.886 42.7588C155.089 44.1813 153.424 44.8926 151.889 44.8926C150.691 44.8926 149.661 44.4246 148.8 43.4888C147.939 42.5155 147.509 41.3737 147.509 40.0635C147.509 38.1917 148.332 36.32 149.979 34.4482C151.627 32.5765 154.584 30.5176 158.852 28.2715C160.948 27.1484 162.408 25.9692 163.231 24.7339L163.4 24.5093L163.625 24.9585C163.625 25.2205 163.288 25.6698 162.614 26.3062C161.977 26.9425 161.659 27.3918 161.659 27.6538C162.895 28.702 163.905 29.2261 164.691 29.2261C165.665 29.2261 166.694 28.8517 167.78 28.103L168.004 28.4399C168.004 28.6271 167.125 29.5068 165.365 31.0791C163.643 32.6139 162.296 33.3813 161.322 33.3813C160.424 33.3813 158.814 32.3519 156.493 30.293ZM180.077 35.459C180.826 34.6354 181.93 33.6434 183.39 32.4829C184.888 31.3224 186.048 30.3304 186.872 29.5068C187.695 28.6458 188.5 27.4479 189.286 25.9131C189.511 25.9131 189.623 26.0628 189.623 26.3623C189.623 26.6243 189.417 27.1297 189.005 27.8784C189.005 28.5897 189.361 29.2822 190.072 29.9561C190.784 30.6299 191.588 30.9668 192.487 30.9668C193.385 30.9668 194.733 30.1994 196.53 28.6646C196.754 28.6646 196.867 28.7769 196.867 29.0015C195.444 30.2368 194.153 31.4722 192.992 32.7075C191.832 33.9054 190.596 34.5044 189.286 34.5044C188.35 34.5044 186.965 33.6621 185.131 31.9775C182.623 33.9616 180.938 35.4964 180.077 36.582V46.0156C180.077 48.6361 181.163 50.4329 183.334 51.4062L184.064 52.0239L183.615 52.3047C181.668 52.6042 179.796 54.1764 178 57.0215C177.438 57.8825 177.007 58.2756 176.708 58.2007C177.419 56.7407 177.775 55.861 177.775 55.5615C177.775 54.8877 177.363 54.1764 176.54 53.4277C175.716 52.6416 175.042 52.2485 174.518 52.2485C174.031 52.2485 173.451 52.3983 172.777 52.6978C172.141 52.9972 171.729 53.147 171.542 53.147C171.317 53.147 171.205 53.0347 171.205 52.8101L172.272 52.1362C174.63 51.1629 175.81 49.8153 175.81 48.0933V19.9048C175.81 16.7603 176.783 14.0649 178.729 11.8188C180.714 9.57275 183.297 8.44971 186.479 8.44971C188.612 8.44971 190.334 9.02995 191.645 10.1904C192.955 11.3509 193.61 12.605 193.61 13.9526C193.61 16.5356 192.58 17.8271 190.521 17.8271C189.698 17.8271 188.987 17.5464 188.388 16.9849C187.826 16.3859 187.545 15.6372 187.545 14.7388C187.545 13.2414 188.35 12.2868 189.96 11.875L190.634 11.5381C190.634 11.1263 190.278 10.6584 189.567 10.1343C188.893 9.61019 187.826 9.34814 186.366 9.34814C184.42 9.34814 182.885 9.89095 181.762 10.9766C180.639 12.0622 180.077 14.2708 180.077 17.6025V35.459ZM191.813 38.5474C191.813 40.0073 192.281 41.5983 193.217 43.3203C194.19 45.0049 194.677 46.8579 194.677 48.8794C194.677 51.425 193.685 54.27 191.701 57.4146C189.717 60.5965 187.414 63.4416 184.794 65.9497C182.174 68.4578 180.714 69.7119 180.414 69.7119L180.189 69.375L181.088 68.4766C187.377 62.8988 190.521 57.6392 190.521 52.6978C190.521 51.5373 190.128 50.0399 189.342 48.2056C188.594 46.3713 188.219 44.799 188.219 43.4888C188.219 40.6812 189.08 38.2104 190.802 36.0767C192.562 33.9054 193.666 32.8198 194.115 32.8198C194.34 32.8198 194.452 32.9321 194.452 33.1567L194.115 33.5498C192.58 35.2718 191.813 36.9377 191.813 38.5474ZM211.41 27.2607L211.972 27.6538C216.239 29.8999 218.373 33.8867 218.373 39.6143C218.373 41.3363 217.868 43.208 216.857 45.2295C215.846 47.2135 214.068 49.4596 211.522 51.9678C208.977 54.4759 207.012 56.591 205.626 58.313L205.402 57.9761C206.263 56.7033 206.693 55.9359 206.693 55.6738L206.02 55.2246C201.864 52.7539 199.787 49.1227 199.787 44.3311C199.787 41.8978 200.367 39.4645 201.527 37.0312C202.688 34.598 204.634 32.2021 207.367 29.8438C210.1 27.4479 211.972 25.4451 212.982 23.8354L213.207 24.1724C213.207 24.5093 212.608 25.5387 211.41 27.2607ZM210.568 50.7324C211.766 50.7324 212.702 49.8527 213.375 48.0933C214.049 46.2964 214.386 44.1439 214.386 41.6357C214.386 38.903 213.581 36.4884 211.972 34.3921C210.399 32.2583 208.939 31.1914 207.592 31.1914C206.693 31.1914 205.907 32.2583 205.233 34.3921C204.597 36.4884 204.279 38.641 204.279 40.8496C204.279 43.7695 204.896 46.1466 206.132 47.981C207.367 49.8153 208.846 50.7324 210.568 50.7324ZM229.154 35.6836C233.684 32.0898 237.09 28.7394 239.374 25.6323L239.936 25.127L240.16 25.3516C240.16 25.6885 239.936 26.119 239.486 26.6431C239.037 27.1297 238.812 27.4666 238.812 27.6538C238.812 28.0282 239.187 28.5335 239.936 29.1699C240.722 29.7689 241.564 30.0684 242.462 30.0684C242.986 30.0684 244.035 29.6004 245.607 28.6646L245.832 28.8892C245.832 29.1512 244.783 30.0496 242.687 31.5845C240.591 33.0819 239.262 33.8306 238.7 33.8306C237.353 33.8306 236.155 33.1006 235.106 31.6406C231.7 34.598 229.716 36.32 229.154 36.8066V50.3955C230.315 50.0212 231.419 49.834 232.467 49.834C234.339 49.834 235.93 50.3955 237.24 51.5186L237.633 51.7993C237.895 51.7993 238.363 51.3127 239.037 50.3394C239.711 49.366 240.048 48.3179 240.048 47.1948C240.048 46.2215 239.73 44.7616 239.093 42.8149C238.494 40.8683 238.195 39.4458 238.195 38.5474C238.195 36.4136 239.786 34.2798 242.968 32.146C243.305 31.884 243.642 31.6781 243.979 31.5283L244.259 31.7529C243.061 32.7637 242.462 33.7744 242.462 34.7852C242.462 35.7585 242.724 37.1997 243.249 39.1089C243.81 40.9806 244.091 42.4032 244.091 43.3765C244.091 44.6867 243.66 46.0343 242.799 47.4194C241.976 48.8045 240.235 50.564 237.577 52.6978C234.957 54.7941 233.216 56.3664 232.355 57.4146L232.13 57.0776C232.13 56.8905 232.28 56.6284 232.58 56.2915C232.879 55.992 233.029 55.7113 233.029 55.4492C233.029 54.9251 232.729 54.3449 232.13 53.7085C231.569 53.0347 230.577 52.6603 229.154 52.5854V63.2544C229.154 64.7892 229.323 65.7625 229.66 66.1743C229.997 66.5861 230.446 66.792 231.007 66.792L231.344 66.9604L230.783 67.522C227.9 69.244 225.766 71.1157 224.381 73.1372L223.82 73.6426L223.595 73.418C223.595 73.2308 223.708 73.0062 223.932 72.7441C224.569 71.8457 224.887 70.498 224.887 68.7012V53.2593C223.427 53.7459 221.705 54.8315 219.721 56.5161C219.496 56.5161 219.384 56.3851 219.384 56.123C221.48 54.3262 223.314 52.9972 224.887 52.1362V34.8975C224.887 33.9242 224.512 33.0819 223.764 32.3706C223.015 31.6593 222.435 31.3037 222.023 31.3037C221.387 31.3037 220.788 31.6219 220.226 32.2583C219.665 32.8573 219.309 33.2316 219.159 33.3813L218.542 32.9321C219.178 32.2209 220.226 31.285 221.686 30.1245C223.183 28.9266 225.242 27.0923 227.863 24.6216L228.087 24.8462C228.087 25.1082 227.32 26.0441 225.785 27.6538L226.571 28.3838C228.293 29.6191 229.154 31.0604 229.154 32.7075V35.6836Z" fill="white"/>
</g>
<defs>
<clipPath id="clip0_17_66">
<rect width="267" height="76" fill="white"/>
</clipPath>
</defs>
</svg>
